# xmcd
#
# Track frame offsets: 
#        150
#        18761
#        37105
#        56447
#        75502
#        101598
#        117977
#        150930
#        167019
#        182904
#        198426
#
# Disc length: 3013 seconds
#
# Revision: 0
# Processed by: cddbd v1.5.2PL0 Copyright (c) Steve Scherf et al.
# Submitted via: ExactAudioCopyFreeDBPlugin 1.0
#
DISCID=7f0bc30b
DTITLE=Mud Morganfield - The Blues In My Blood
DYEAR=2013
DGENRE=Blues
TTITLE0=Walkin' Through The Park
TTITLE1=Forty Days And Forty Nights
TTITLE2=What Is That That You Got
TTITLE3=Hoochie Coochie Man
TTITLE4=You Gonna Miss Me
TTITLE5=I'm Ready
TTITLE6=Mannish Boy
TTITLE7=D.A Strut
TTITLE8=Been Mistreated
TTITLE9=Good Morning Little School Girl
TTITLE10=Mud Morganfield Interview
EXTD=
EXTT0=
EXTT1=
EXTT2=
EXTT3=
EXTT4=
EXTT5=
EXTT6=
EXTT7=
EXTT8=
EXTT9=
EXTT10=
PLAYORDER=
